<?xml version="1.0" encoding="UTF-8"?>
<svg width="1200pt" height="1200pt" version="1.1" viewBox="0 0 1200 1200" xmlns="http://www.w3.org/2000/svg">
 <path d="m472.74 572.72c0.046875-15 0.09375-27.984 0.14062-36.891-0.14062-30.703-0.28125-68.625-0.28125-115.59 0-15.891-9.4688-33.891-21.656-40.922-6.3281-3.7031-12.75-4.0312-18-1.0312-5.9062 3.4219-9.2812 10.781-9.2812 20.156v150.89c-1.7812 0.51562-3.5625 1.1719-5.1562 2.0156-0.1875 0.09375-0.42188 0.1875-0.60938 0.28125l-32.578 18.844c-4.5938 2.625-8.1562 6.6562-10.547 11.719s-3.6562 11.297-3.6562 18.328c0 27.047 18.375 58.828 41.766 72.328 3.75 2.1562 7.4531 3.7031 11.016 4.7344 1.5 13.969 10.031 28.031 21.469 34.594 3.5156 1.9688 6.9844 3 10.312 3 2.6719 0 5.25-0.65625 7.5938-2.0156 5.9531-3.4219 9.3281-10.781 9.3281-20.156l0.046875-32.719 5.9531-3.4688c0.09375-0.046875 0.14062-0.09375 0.1875-0.14062 0.09375-0.046875 0.1875-0.046875 0.28125-0.09375 8.8594-5.3438 13.781-15.938 13.781-29.812 0-17.859-8.0625-37.734-20.203-53.062 0.09375-0.32812 0.09375-0.65625 0.09375-0.98438zm-54.281 90.469c-19.922-11.484-36.141-39.562-36.141-62.625 0-9.9375 3.0469-17.156 8.625-20.391 2.1094-1.2656 4.6406-1.8281 7.3594-1.8281 4.3594 0 9.3281 1.5469 14.625 4.5938 19.969 11.531 36.188 39.609 36.188 62.625 0 9.6094-2.8594 16.781-8.1562 20.109l-0.51562 0.28125c-2.1562 1.2656-4.6406 1.875-7.4062 1.875-4.3594 0-9.3281-1.5938-14.625-4.6406zm63.188-36.422c0 9.9375-3.0469 17.203-8.5781 20.344v0.046875l-7.875 4.5469c-0.65625 0.23438-1.2656 0.5625-1.7344 0.98438l-4.0312 2.2969c0.5625-2.9062 0.89062-6.0469 0.89062-9.4219 0-27.047-18.375-58.828-41.766-72.281-2.9062-1.6875-5.8125-3-8.625-4.0312l13.031-7.5469c0.1875-0.046875 0.375-0.14062 0.5625-0.28125 5.5312-3.2344 13.406-2.2969 21.984 2.6719 19.969 11.531 36.188 39.609 36.188 62.672zm126.98-56.625c0-17.906-8.1094-37.875-20.344-53.25v-29.906c-0.046875-15.984-9.6094-33.984-21.75-40.922-6.3281-3.7031-12.703-4.0781-18-1.0312-5.9062 3.375-9.2812 10.734-9.2812 20.062v27.75c-1.6875 0.46875-3.375 1.0781-4.9688 1.9219-0.1875 0.09375-0.42188 0.1875-0.60938 0.28125l-32.484 18.797c-0.375 0.1875-0.70312 0.42188-0.98438 0.70312-8.5312 5.4375-13.266 15.797-13.266 29.391 0 27.047 18.328 58.828 41.719 72.328 3.5625 2.0156 7.0781 3.5625 10.547 4.5938v117.05c0 15.938 9.5156 33.938 21.703 40.969 3.5156 1.9688 7.0312 3.0469 10.359 3.0469 2.6719 0 5.25-0.70312 7.6406-2.0156 5.9062-3.4219 9.375-10.781 9.375-20.156v-156l6.1406-3.5156 0.14062-0.14062c0.09375-0.046875 0.1875-0.046875 0.28125-0.14062 8.8594-5.2969 13.781-15.891 13.781-29.812zm-74.297 36.469c-19.969-11.531-36.188-39.609-36.188-62.625 0-9.9375 3.0938-17.156 8.625-20.391 2.1562-1.2656 4.6875-1.8281 7.4531-1.8281 4.3125 0 9.2812 1.5469 14.531 4.5938 19.969 11.484 36.188 39.562 36.188 62.625 0 9.6094-2.8594 16.734-8.1562 20.109l-0.51562 0.28125c-2.1562 1.2656-4.6406 1.875-7.4062 1.875-4.3594 0-9.2812-1.5938-14.578-4.6406zm54.516-16.078-13.594 7.875c0.5625-2.9062 0.84375-6.0938 0.84375-9.4219 0-27.047-18.375-58.828-41.766-72.328-2.9062-1.6875-5.8125-3-8.625-3.9844l13.031-7.5469 0.5625-0.28125c5.5781-3.2812 13.406-2.2969 22.031 2.6719 6 3.5156 11.672 8.4844 16.734 14.438 0.23438 0.42188 0.51562 0.75 0.84375 1.0781 11.109 13.5 18.562 31.547 18.562 47.156 0 9.9844-3.0469 17.203-8.5781 20.391zm115.03-36.891c-0.046875-15.891-9.6094-33.891-21.75-40.875-6.3281-3.7031-12.703-4.0781-18-1.0312-5.9062 3.4219-9.2812 10.734-9.2812 20.062v66.984c-3 0.51562-5.8594 1.4531-8.4844 2.9531l-32.531 18.797c-4.5938 2.6719-8.1562 6.6562-10.547 11.719s-3.6562 11.297-3.6562 18.328c0 27.094 18.375 58.828 41.719 72.328 4.6406 2.6719 9.1406 4.4062 13.5 5.2969v76.406c-0.046875 15.891 9.4688 33.891 21.703 40.922 3.4688 2.0156 6.9844 3.0469 10.312 3.0469 2.6719 0 5.25-0.70312 7.6406-2.0156 5.9531-3.4219 9.375-10.734 9.4219-20.109v-117.8l3.1875-1.7812c9.1406-5.2969 14.203-16.031 14.203-30.094 0-16.453-6.7969-34.641-17.438-49.406l0.046875-73.781zm-56.953 159.61c-19.922-11.484-36.141-39.562-36.141-62.625 0-9.8906 3.0469-17.156 8.5781-20.391 2.1094-1.2188 4.6406-1.7812 7.3594-1.7812 4.4062 0 9.375 1.5469 14.625 4.5469 19.969 11.578 36.188 39.656 36.188 62.625 0 9.7031-2.9531 16.875-8.2969 20.203-5.5781 3.4688-13.5 2.5781-22.312-2.5312zm63.141-36.422c0 9.9375-3.0469 17.203-8.625 20.438l-13.594 7.875c0.5625-2.9531 0.89062-6.1406 0.89062-9.5156 0-27-18.375-58.734-41.766-72.281-2.9062-1.6875-5.7656-3-8.5781-3.9844l13.594-7.875c5.5312-3.2344 13.359-2.25 21.938 2.6719 7.2188 4.1719 13.922 10.5 19.547 18 0.23438 0.42188 0.5625 0.84375 0.9375 1.2188 9.4688 13.031 15.703 29.203 15.703 43.5zm164.29-221.26c-5.2969-9.1875-11.906-16.266-19.125-20.531l-432.52-249.66c-8.0625-4.6406-16.125-5.1094-22.688-1.3594l-72.281 41.719c-3.7969 2.1562-6.75 5.625-8.7188 10.078-2.0156 4.4531-3.0938 9.8438-3.1406 15.938v458.29c0 11.016 3.5625 23.531 9.7969 34.359 5.2969 9.1875 11.906 16.266 19.125 20.438l432.42 249.61c4.5 2.625 9 3.9844 13.266 3.9844 3.375 0 6.5625-0.84375 9.4688-2.4844v-0.046875l72.328-41.719c7.5938-4.4062 11.859-13.875 11.812-26.016v-458.21c0-11.109-3.5625-23.625-9.7969-34.406zm-73.688 534.37c0 7.9688-2.2969 14.062-6.2344 16.312-2.9531 1.6875-7.0781 1.2188-11.625-1.4531l-432.42-249.61c-5.3906-3.1406-10.781-8.9531-15.047-16.359-5.25-9.1406-8.2969-19.641-8.2969-28.734v-458.29c0-7.9688 2.3438-14.109 5.9531-16.172l0.375-0.1875c0.046875 0 0.09375-0.046875 0.14062-0.046875 1.2188-0.70312 2.4844-0.9375 3.7969-0.9375 2.6719 0 5.4375 1.1719 7.5469 2.3438l432.37 249.66c5.4844 3.1875 10.875 9 15.094 16.406 5.25 9.1406 8.3438 19.641 8.3438 28.781z"/>
</svg>
