<?xml version="1.0" encoding="UTF-8"?>
<svg id="Layer_1" xmlns="http://www.w3.org/2000/svg" version="1.1" viewBox="0 0 1200 1200">
  <!-- Generator: Adobe Illustrator 30.2.1, SVG Export Plug-In . SVG Version: 2.1.1 Build 1)  -->
  <path d="M981.4,149.6c-10.4,0-18.8,8.4-18.8,18.8v79.3c-95.1-97.9-224.9-153.9-362.7-153.9-279.1,0-506.2,227.1-506.2,506.3s227.1,506.2,506.2,506.2,299.3-69.6,396.1-191c6.5-8.1,5.1-19.9-3-26.3-8.1-6.5-19.8-5.1-26.3,3-89.6,112.3-223.3,176.8-366.8,176.8-258.5,0-468.8-210.3-468.8-468.8s210.3-468.8,468.8-468.8,251,53.3,339.3,146.3h-85.4c-10.4,0-18.8,8.4-18.8,18.8s8.4,18.8,18.8,18.8h127.5c10.4,0,18.8-8.4,18.8-18.8v-128c0-10.4-8.4-18.8-18.7-18.8h0Z"/>
  <path d="M1087.5,581.2c-10.4,0-18.8,8.4-18.8,18.8,0,63.3-12.4,124.7-36.8,182.4-4,9.6.4,20.6,10,24.6,2.4,1,4.9,1.5,7.3,1.5,7.3,0,14.2-4.3,17.3-11.4,26.4-62.4,39.7-128.7,39.7-197.1s-8.4-18.8-18.8-18.8h0Z"/>
  <path d="M600,300c-165.4,0-300,134.6-300,300s134.6,300,300,300,300-134.6,300-300-134.6-300-300-300ZM679.6,534.3h-56.6c-15.3,55.5-35.7,126.9-47.6,173.3-3.4,14.7-2.3,22.7,4.5,22.7,14.2,0,35.7-18.7,58.9-54.4l12.5,11.3c-30.6,58.3-77.6,85.5-111,85.5s-26.6-11.9-26.6-29.5,3.4-32.3,9.6-53.8c14.2-52.7,28.9-103.7,43-155.2h-42.5l7.4-21.5h40.8l23.8-83.8c5.1.6,9.6,1.1,22.1,1.1s31.2-1.1,36.3-2.8c-7.9,26.1-16.4,57.2-24.9,85.5h57.2l-6.8,21.5Z"/>
</svg>